<svg width="512" height="512" viewBox="0 0 512 512" fill="none" xmlns="http://www.w3.org/2000/svg">
  <defs>
    <linearGradient id="narskyPink" x1="88" y1="84" x2="394" y2="420" gradientUnits="userSpaceOnUse">
      <stop stop-color="#FF63DE"/>
      <stop offset="0.55" stop-color="#BC63FF"/>
      <stop offset="1" stop-color="#35D8FF"/>
    </linearGradient>
    <linearGradient id="narskyBlue" x1="318" y1="92" x2="412" y2="392" gradientUnits="userSpaceOnUse">
      <stop stop-color="#A56BFF"/>
      <stop offset="1" stop-color="#23D7FF"/>
    </linearGradient>
    <filter id="glow" x="0" y="0" width="512" height="512" filterUnits="userSpaceOnUse" color-interpolation-filters="sRGB">
      <feGaussianBlur stdDeviation="10" result="blur"/>
      <feMerge>
        <feMergeNode in="blur"/>
        <feMergeNode in="SourceGraphic"/>
      </feMerge>
    </filter>
  </defs>
  <rect width="512" height="512" rx="116" fill="#090B1D"/>
  <g filter="url(#glow)">
    <path d="M94 382C66 246 136 122 264 96C313 86 365 96 404 122" stroke="url(#narskyPink)" stroke-width="20" stroke-linecap="round"/>
    <path d="M403 132C448 175 456 252 434 322C412 393 356 433 274 438" stroke="url(#narskyBlue)" stroke-width="18" stroke-linecap="round"/>
    <path d="M164 390L232 166H298L214 390H164Z" fill="url(#narskyPink)" stroke="#FFD4FB" stroke-width="4"/>
    <path d="M212 166H286L380 392H312L212 166Z" fill="url(#narskyBlue)" stroke="#D5F7FF" stroke-width="4"/>
    <path d="M322 214H366L340 336H296L322 214Z" fill="url(#narskyBlue)" stroke="#E7F9FF" stroke-width="4"/>
    <path d="M392 101L401 128L428 137L401 146L392 174L383 146L356 137L383 128L392 101Z" fill="white"/>
    <path d="M118 364C131 364 142 375 142 388C142 375 153 364 166 364C153 364 142 353 142 340C142 353 131 364 118 364Z" fill="#FF8BEA"/>
    <path d="M86 418C112 396 134 404 136 427C136 446 118 462 101 462C84 462 68 449 68 432C68 418 76 408 86 418Z" fill="#FF8BEA"/>
    <circle cx="250" cy="238" r="4" fill="#FFE9FF"/>
    <circle cx="278" cy="292" r="5" fill="#FFE9FF"/>
  </g>
</svg>
